HIERARCHY
ROOT Hips
{
  OFFSET 1.44925e-005 102.336 -0.101585
  CHANNELS 6 Xposition Yposition Zposition Zrotation Xrotation Yrotation
  JOINT LeftUpLeg
  {
    OFFSET 8.9458 -8.66707 0.101652
    CHANNELS 3 Zrotation Xrotation Yrotation
    JOINT LeftLeg
    {
      OFFSET 0 -44.4227 1.3727
      CHANNELS 3 Zrotation Xrotation Yrotation
      JOINT LeftFoot
      {
        OFFSET -0.253549 -42.0924 -1.46059
        CHANNELS 3 Zrotation Xrotation Yrotation
        JOINT LeftToes
        {
          OFFSET -0.04 -4.41509 8.4991
          CHANNELS 3 Zrotation Xrotation Yrotation
          End Site
          {
            OFFSET 0.08 -0.047448 9.77979
          }
        }
      }
    }
  }
  JOINT Spine
  {
    OFFSET 0 11.8905 0
    CHANNELS 3 Zrotation Xrotation Yrotation
    JOINT Spine1
    {
      OFFSET 0 25.6574 0.127663
      CHANNELS 3 Zrotation Xrotation Yrotation
      JOINT RightShoulder
      {
        OFFSET -8.99 -0.362252 -0.22
        CHANNELS 3 Zrotation Xrotation Yrotation
        JOINT RightArm
        {
          OFFSET -10.2827 -0.00338 0.322123
          CHANNELS 3 Zrotation Xrotation Yrotation
          JOINT RightForeArm
          {
            OFFSET -26.364 0.099144 -1.42434
            CHANNELS 3 Zrotation Xrotation Yrotation
            JOINT RightHand
            {
              OFFSET -22.0324 0.085362 1.02216
              CHANNELS 3 Zrotation Xrotation Yrotation
              End Site
              {
                OFFSET -13.3284 -0.6 1.50291
              }
            }
          }
        }
      }
      JOINT LeftShoulder1
      {
        OFFSET 8.99 -0.362252 -0.22
        CHANNELS 3 Zrotation Xrotation Yrotation
        JOINT LeftArm
        {
          OFFSET 10.2827 -0.00337999 0.322123
          CHANNELS 3 Zrotation Xrotation Yrotation
          JOINT LeftForeArm
          {
            OFFSET 26.2597 0.099144 -1.42434
            CHANNELS 3 Zrotation Xrotation Yrotation
            JOINT LeftHand
            {
              OFFSET 22.0902 0.085362 1.02216
              CHANNELS 3 Zrotation Xrotation Yrotation
              End Site
              {
                OFFSET 13.419 -0.6 1.50291
              }
            }
          }
        }
      }
      JOINT Head
      {
        OFFSET 0 8.73416 0.011341
        CHANNELS 3 Zrotation Xrotation Yrotation
        End Site
        {
          OFFSET -0.29 12.7742 2.51395
        }
      }
    }
  }
  JOINT RightUpLeg
  {
    OFFSET -8.9458 -8.66707 0.101652
    CHANNELS 3 Zrotation Xrotation Yrotation
    JOINT RightLeg
    {
      OFFSET 0 -44.4227 1.3727
      CHANNELS 3 Zrotation Xrotation Yrotation
      JOINT RightFoot
      {
        OFFSET 0.253549 -42.0924 -1.46059
        CHANNELS 3 Zrotation Xrotation Yrotation
        JOINT RightToes
        {
          OFFSET 0.04 -4.41509 8.4991
          CHANNELS 3 Zrotation Xrotation Yrotation
          End Site
          {
            OFFSET -0.08 -0.137448 9.77979
          }
        }
      }
    }
  }
}
MOTION
Frames:	7
Frame Time:	0.0333333
182.382 101.345 6.79778 -13.6258 1.52172 -95.6315 -1.00978 13.0274 3.3792 1.70365 16.8951 20.4764 -5.26272 -19.2579 -0.444256 -1.43287e-009 8.75166e-006 -1.45761e-008 1.0409 -5.53917 -0.912859 1.30139 2.12607 -1.03418 36.0869 1.71166 0.0372565 37.2453 -26.2646 -3.67057 9.4958 43.1083 3.17529 -8.78191 9.56042 -0.559401 -41.9445 3.43442 -3.59646 -27.9108 -22.7382 12.4744 -6.38509 41.4505 -10.0414 5.82328 9.61819 -0.917488 -0.252865 11.7821 -2.82081 -0.717958 12.3428 -3.57483 -2.49841 17.7308 -8.34109 6.17609 -19.8224 0.411539 0.0462048 0.000530889 0.662642 
182.426 101.345 6.8264 -13.5803 1.48405 -95.4452 -1.0344 12.8707 3.19041 1.7398 17.0101 20.4729 -5.2706 -19.2686 -0.444285 -1.43287e-009 8.75166e-006 -1.45761e-008 0.984198 -5.46233 -0.985479 1.30785 1.98507 -1.09082 36.234 1.71684 0.0372566 37.0432 -26.4375 -3.92222 9.52452 43.2925 2.99757 -8.75765 9.55235 -0.42194 -42.1066 3.44794 -3.59461 -27.7965 -22.2267 12.3753 -6.29164 40.9357 -10.329 5.82328 9.61819 -0.917488 -0.415595 10.5718 -3.87634 -0.762722 12.2756 -3.7484 -2.42742 17.7463 -8.35036 6.13819 -19.8117 0.411511 0.0462048 0.000530889 0.662642 
182.499 101.353 6.88059 -13.4522 1.42715 -95.2615 -1.08796 12.6113 2.97434 1.76679 17.1023 20.5045 -5.2481 -19.2545 -0.442282 -1.43287e-009 8.75166e-006 -1.45761e-008 1.0664 -5.32413 -1.04521 1.09478 1.66209 -1.09776 36.4884 1.72637 0.0382943 36.7504 -26.58 -4.38774 9.64734 43.6652 2.6384 -8.52294 9.53873 -0.058347 -42.1752 3.44763 -3.5841 -27.7578 -21.6741 12.2231 -6.10893 40.3918 -10.7338 5.82328 9.61819 -0.917488 -0.049461 10.0996 -3.80515 -0.826534 12.0979 -3.90266 -2.37087 17.7621 -8.37456 6.10933 -19.7813 0.411954 0.0462048 0.000530889 0.662642 
182.558 101.379 6.92872 -13.29 1.3834 -95.2375 -1.13945 12.4248 2.93164 1.75495 17.0183 20.5342 -5.18756 -19.1809 -0.433412 -1.43287e-009 8.75166e-006 -1.45761e-008 1.22871 -5.27205 -1.03978 0.807737 1.46046 -1.04103 36.5467 1.73107 0.0441441 36.7455 -26.5421 -4.75632 9.82807 43.9155 2.27899 -8.31381 9.54108 0.0565823 -41.9476 3.42212 -3.56735 -28.0728 -21.5326 12.0641 -5.83187 40.2606 -11.1164 5.82328 9.61819 -0.917488 0.600963 10.8204 -2.23733 -0.863524 11.9144 -3.91935 -2.40058 17.698 -8.37053 6.14966 -19.7206 0.414377 0.0462048 0.000530889 0.662642 
182.606 101.417 6.95446 -13.1294 1.35681 -95.2722 -1.15846 12.3065 2.99534 1.72971 16.8322 20.5106 -5.13129 -19.0638 -0.422838 -1.43287e-009 8.75166e-006 -1.45761e-008 1.25054 -5.32177 -1.02296 0.72874 1.50563 -1.01363 36.4362 1.73162 0.0534453 36.9188 -26.4319 -4.9487 9.9303 43.9783 2.11293 -8.32098 9.5522 -0.123876 -41.5926 3.39121 -3.55923 -28.6316 -21.5504 11.8932 -5.5143 40.223 -11.5098 5.82328 9.61819 -0.917488 0.765482 11.4324 -0.942134 -0.877939 11.7791 -3.92506 -2.4415 17.542 -8.31857 6.20958 -19.6235 0.413974 0.0462048 0.000530889 0.662642 
182.68 101.455 6.96602 -12.95 1.34337 -95.2377 -1.13869 12.1167 3.01052 1.72355 16.7119 20.446 -5.10671 -18.9495 -0.415718 -1.43287e-009 8.75166e-006 -1.45761e-008 1.14917 -5.2555 -1.03363 0.776711 1.44045 -1.03301 36.4988 1.73621 0.0538346 36.8337 -26.3711 -5.19106 9.89793 44.0063 2.17504 -8.41734 9.54964 -0.152934 -41.313 3.36475 -3.54821 -29.0644 -21.5044 11.7387 -5.32971 40.126 -11.7623 5.82328 9.61819 -0.917488 0.576057 11.1014 -0.743699 -0.888838 11.6183 -4.00943 -2.40197 17.3808 -8.27156 6.19944 -19.5039 0.407014 0.0462048 0.000530889 0.662642 
182.787 101.488 6.97938 -12.744 1.34547 -95.1484 -1.09668 11.8163 2.94945 1.73743 16.7049 20.3925 -5.10013 -18.8631 -0.411526 -1.43287e-009 8.75166e-006 -1.45761e-008 1.14961 -4.92983 -1.04829 0.634994 0.978424 -1.02506 36.8317 1.74145 0.0406577 36.475 -26.33 -5.60557 9.83726 43.971 2.32544 -8.52153 9.53303 0.0297821 -41.1096 3.33509 -3.51813 -29.1878 -21.492 11.6481 -5.37884 40.2722 -11.6814 5.82328 9.61819 -0.917488 0.502119 10.5379 -0.943028 -0.885173 11.389 -4.09756 -2.31402 17.2703 -8.28764 6.14031 -19.3858 0.39489 0.0462048 0.000530889 0.662642 
